# xmcd
#
# Track frame offsets:
#	150
#	15411
#	32895
#	47465
#	60882
#	77893
#	97875
#	117585
#	139217
#	154596
#	173581
#	189621
#
# Disc length: 2695 seconds
#
# Revision: 1
# Processed by: cddbd v1.5.2PL0 Copyright (c) Steve Scherf et al.
# Submitted via: audiograbber 1.81.03
#
DISCID=8d0a850c
DTITLE=The`Bosshoss - Welcome To Internashville
DYEAR=2006
DGENRE=Country
TTITLE0=Yee Haw
TTITLE1=Hey Ya
TTITLE2=Ring Ring Ring
TTITLE3=I Say A Little Prayer
TTITLE4=Rodeo Queen
TTITLE5=Hot In Herre
TTITLE6=Toxic
TTITLE7=Mary Marry Me
TTITLE8=Ca Plane Pour Moi
TTITLE9=Word Up
TTITLE10=Unbelievable
TTITLE11=Rodeo Radio
EXTD=
EXTT0=
EXTT1=
EXTT2=
EXTT3=
EXTT4=
EXTT5=
EXTT6=
EXTT7=
EXTT8=
EXTT9=
EXTT10=
EXTT11=
PLAYORDER=
